HIERARCHY
ROOT Hips
{
	OFFSET	0.000000	0.000000	0.000000
	CHANNELS 6 Xposition Yposition Zposition Zrotation Xrotation Yrotation
	JOINT LeftHip
	{
		OFFSET	4.740440	-3.195970	-0.322709
		CHANNELS 3 Zrotation Xrotation Yrotation
		JOINT LeftKnee
		{
			OFFSET	-1.605680	-15.592300	1.005510
			CHANNELS 3 Zrotation Xrotation Yrotation
			JOINT LeftAnkle
			{
				OFFSET	-0.632401	-16.421000	-1.413730
				CHANNELS 3 Zrotation Xrotation Yrotation
				End Site
				{
					OFFSET	0.008423	-3.933000	-2.776750
				}
			}
		}
	}
	JOINT RightHip
	{
		OFFSET	-4.740440	-3.195970	-0.322709
		CHANNELS 3 Zrotation Xrotation Yrotation
		JOINT RightKnee
		{
			OFFSET	1.605680	-15.592300	1.005510
			CHANNELS 3 Zrotation Xrotation Yrotation
			JOINT RightAnkle
			{
				OFFSET	0.632401	-16.421000	-1.413730
				CHANNELS 3 Zrotation Xrotation Yrotation
				End Site
				{
					OFFSET	-0.008423	-3.933000	-2.776750
				}
			}
		}
	}
	JOINT Chest
	{
		OFFSET	0.000000	3.468200	0.078401
		CHANNELS 3 Zrotation Xrotation Yrotation
		JOINT LeftCollar
		{
			OFFSET	3.857650	15.070700	-0.011583
			CHANNELS 3 Zrotation Xrotation Yrotation
			JOINT LeftShoulder
			{
				OFFSET	3.979720	-1.940530	-0.165223
				CHANNELS 3 Zrotation Xrotation Yrotation
				JOINT LeftElbow
				{
					OFFSET	0.615844	-10.986600	-0.673886
					CHANNELS 3 Zrotation Xrotation Yrotation
					JOINT LeftWrist
					{
						OFFSET	0.826843	-10.854500	1.034220
						CHANNELS 3 Zrotation Xrotation Yrotation
						End Site
						{
							OFFSET	-1.679080	-8.456540	0.936217
						}
					}
				}
			}
		}
		JOINT RightCollar
		{
			OFFSET	-3.857650	15.070700	-0.011583
			CHANNELS 3 Zrotation Xrotation Yrotation
			JOINT RightShoulder
			{
				OFFSET	-3.979720	-1.940530	-0.165223
				CHANNELS 3 Zrotation Xrotation Yrotation
				JOINT RightElbow
				{
					OFFSET	-0.615845	-10.986600	-0.673886
					CHANNELS 3 Zrotation Xrotation Yrotation
					JOINT RightWrist
					{
						OFFSET	-0.826843	-10.854500	1.034220
						CHANNELS 3 Zrotation Xrotation Yrotation
						End Site
						{
							OFFSET	1.679080	-8.456540	0.936217
						}
					}
				}
			}
		}
		JOINT Neck
		{
			OFFSET	0.000000	15.101400	0.055730
			CHANNELS 3 Zrotation Xrotation Yrotation
			JOINT Head
			{
				OFFSET	0.000000	4.185120	1.488260
				CHANNELS 3 Zrotation Xrotation Yrotation
				End Site
				{
					OFFSET	0.000000	7.773420	-0.106016
				}
			}
		}
	}
}
MOTION
Frames:    13
Frame Time: 0.016667
-13.122230	26.188002	23.389406	-1.226272	-49.600334	4.517559	43.939014	-18.764828	13.493753	-32.536411	53.393101	29.530220	5.730168	16.189777	5.180549	-37.202854	-12.654425	-19.452482	30.218933	68.536766	-20.375107	-1.078867	2.994214	-2.566018	25.838676	54.816635	-19.383945	2.513166	-13.579768	-9.096682	20.390461	-47.342892	2.299444	-12.651493	-42.611794	16.460964	6.222162	12.407514	29.306259	-15.598813	-3.997165	0.888668	-10.237226	-17.038897	3.773462	-1.971674	-19.370680	27.447449	-19.119118	-37.067410	8.532832	-5.774951	-10.270478	2.230814	-18.264866	9.053091	14.433544	
-13.122303	26.189167	23.389692	-1.225952	-49.598270	4.517731	43.939144	-18.766247	13.495303	-32.571693	53.380398	29.569504	5.746355	16.186636	5.177967	-37.197605	-12.652329	-19.471464	30.161198	68.541985	-20.308781	-1.076653	2.994647	-2.575464	25.806446	54.818424	-19.314541	2.431472	-13.475841	-9.059634	20.432791	-47.407894	2.366046	-12.840396	-42.689877	16.234575	6.258549	12.494015	29.322546	-15.631603	-3.998541	0.883698	-10.235752	-17.028811	3.847002	-2.003961	-19.361132	27.456738	-19.173225	-37.013382	8.485812	-5.946879	-10.101524	2.300128	-18.426830	9.040686	14.450845	
-13.121659	26.189217	23.390038	-1.225952	-49.598270	4.517731	43.937885	-18.771996	13.478333	-32.625702	53.363796	29.635723	5.761529	16.183424	5.175515	-37.197605	-12.652329	-19.471464	30.156506	68.542343	-20.294884	-1.074422	2.995089	-2.585003	25.710459	54.829784	-19.101408	2.409895	-13.366248	-9.105380	20.427471	-47.478058	2.406421	-12.992894	-42.761230	16.026524	6.326198	12.625577	29.274830	-15.686373	-3.987465	0.832130	-10.201303	-16.998127	3.894946	-1.969132	-19.309013	27.478132	-19.314169	-36.963097	8.425100	-6.083086	-9.882018	2.338204	-18.578018	9.015865	14.390007	
-13.121863	26.189795	23.389521	-1.218679	-49.598537	4.531739	43.929680	-18.784851	13.451867	-32.683208	53.347221	29.707054	5.775509	16.179892	5.173790	-37.198956	-12.643660	-19.492403	30.108789	68.546623	-20.238354	-1.072191	2.995540	-2.594555	25.652802	54.834465	-18.972961	2.337177	-13.261559	-9.114474	20.432070	-47.488384	2.404016	-13.134315	-42.856483	15.817043	6.447913	12.743181	29.154448	-15.795079	-4.003192	0.851540	-10.134697	-16.949308	3.906685	-1.992400	-19.297659	27.506237	-19.356775	-36.888699	8.356366	-6.171496	-9.681314	2.440934	-18.720201	8.986942	14.293725	
-13.123534	26.190399	23.387064	-1.200437	-49.610462	4.569247	43.909134	-18.796043	13.412527	-32.729603	53.332630	29.763933	5.787635	16.175997	5.172493	-37.201233	-12.612020	-19.536806	30.007002	68.555679	-20.132406	-1.070920	2.995769	-2.599871	25.619394	54.843258	-18.885437	2.346844	-13.127253	-9.076593	20.376247	-47.595470	2.404487	-13.375465	-42.879440	15.549689	6.757903	12.806282	29.086443	-15.836729	-3.981645	0.862763	-10.135899	-16.941002	3.932991	-2.015334	-19.290878	27.477154	-19.349710	-36.825733	8.372762	-6.239213	-9.466662	2.562794	-18.864586	8.986547	14.189317	
-13.124682	26.189442	23.383961	-1.186254	-49.647900	4.604477	43.886402	-18.794031	13.342892	-32.788067	53.316128	29.838228	5.798229	16.172033	5.171869	-37.197124	-12.560819	-19.561508	29.917746	68.563454	-20.035555	-1.068909	2.996203	-2.608602	25.602974	54.891308	-18.831388	2.380901	-12.997576	-9.009664	20.260466	-47.643738	2.307616	-13.631963	-42.939747	15.245344	7.228396	12.890286	29.100636	-15.819270	-3.938200	0.903662	-10.178977	-16.963699	3.898643	-2.037319	-19.291273	27.488808	-19.346378	-36.765842	8.383040	-6.252696	-9.278543	2.672889	-19.033964	8.969061	14.140387	
-13.124842	26.186199	23.381207	-1.198822	-49.735199	4.599005	43.880100	-18.735292	13.275259	-32.819057	53.305431	29.873775	5.807766	16.168278	5.172262	-37.164230	-12.485072	-19.532095	29.853333	68.569099	-19.967255	-1.067815	2.996420	-2.613275	25.625044	54.977100	-18.793798	2.350365	-12.850045	-8.986251	20.232450	-47.715393	2.201524	-13.790870	-42.971920	14.976616	7.673454	12.984666	29.195351	-15.800721	-3.898902	0.897274	-10.233174	-16.984941	3.956488	-2.018986	-19.260635	27.473167	-19.394371	-36.713539	8.369405	-6.334789	-9.026692	2.771243	-19.147711	8.887517	14.105905	
-13.123089	26.179277	23.377975	-1.220042	-49.859509	4.585694	43.874199	-18.648766	13.183184	-32.832069	53.299652	29.883987	5.803017	16.166069	5.183315	-37.128712	-12.387904	-19.446560	29.884268	68.566208	-19.988562	-1.065572	2.996873	-2.622887	25.683943	55.092808	-18.794107	2.377072	-12.704110	-8.959677	20.168650	-47.794090	2.124827	-13.865382	-42.949245	14.789456	7.972947	13.100858	29.231541	-15.817552	-3.834222	0.997682	-10.290957	-17.012295	3.908301	-2.040030	-19.260101	27.448708	-19.439573	-36.657509	8.352767	-6.411344	-8.574104	2.780001	-19.274397	8.673971	14.123251	
-13.122196	26.178211	23.378027	-1.221282	-49.867260	4.584977	43.873772	-18.643406	13.177408	-32.832069	53.299652	29.883987	5.788212	16.162601	5.194613	-37.130379	-12.384232	-19.429775	29.918169	68.563141	-20.016943	-1.064293	2.997083	-2.628222	25.637968	55.145546	-18.739542	2.394611	-12.644325	-8.899564	20.133081	-47.859715	2.039881	-13.945233	-42.913567	14.670596	8.235852	13.216863	29.035093	-15.743807	-3.807739	1.043986	-10.393997	-17.061495	3.951507	-2.029887	-19.238884	27.430046	-19.514202	-36.606396	8.371188	-6.377215	-8.381935	2.895251	-19.419605	8.653381	14.131659	
-13.122281	26.174377	23.374752	-1.214767	-49.924137	4.609708	43.856022	-18.615973	13.120677	-32.827503	53.295902	29.881241	5.773120	16.163591	5.204618	-37.127937	-12.328133	-19.404530	29.936470	68.561493	-20.035053	-1.064293	2.997083	-2.628222	25.666697	55.233990	-18.799557	2.371850	-12.550777	-8.888673	20.230234	-47.944637	2.075650	-14.065363	-42.871925	14.571579	8.495324	13.394042	28.747375	-15.695490	-3.822928	1.075834	-10.453277	-17.085848	4.015861	-2.043685	-19.237627	27.410984	-19.536190	-36.555504	8.469433	-6.337457	-8.312402	3.089598	-19.530529	8.749491	14.102236	
-13.122262	26.174210	23.374653	-1.215298	-49.927437	4.609397	43.856968	-18.608305	13.133449	-32.808640	53.299133	29.855383	5.758776	16.160952	5.215324	-37.126923	-12.325476	-19.402590	29.936470	68.561493	-20.035053	-1.064293	2.997083	-2.628222	25.655935	55.255722	-18.796232	2.330062	-12.438175	-8.908265	20.305365	-47.997707	2.132187	-14.183136	-42.798141	14.407353	8.727078	13.583708	28.562231	-15.661091	-3.807291	1.116349	-10.514016	-17.114481	4.047568	-2.048628	-19.232466	27.327055	-19.501352	-36.534462	8.690546	-6.327609	-8.146358	3.237960	-19.516127	8.731799	13.926524	
-13.122262	26.174210	23.374653	-1.215298	-49.927437	4.609397	43.857788	-18.604019	13.145089	-32.794643	53.301949	29.835756	5.745315	16.157793	5.225589	-37.126923	-12.325476	-19.402590	29.936470	68.561493	-20.035053	-1.064293	2.997083	-2.628222	25.629274	55.292728	-18.784393	2.336779	-12.410065	-8.917284	20.266283	-48.006096	2.107989	-14.225492	-42.686279	14.321006	8.898060	13.780558	28.406229	-15.673772	-3.780564	1.088320	-10.495024	-17.181734	4.134670	-2.063288	-19.235586	27.324816	-19.514282	-36.487610	8.780952	-6.305700	-8.072719	3.296357	-19.525087	8.716593	13.847217	
-13.122454	26.172976	23.373333	-1.210979	-49.946255	4.621703	43.849949	-18.596226	13.125036	-32.793762	53.302017	29.834534	5.738827	16.156242	5.230548	-37.127243	-12.304915	-19.398214	29.936470	68.561493	-20.035053	-1.064293	2.997083	-2.628222	25.621706	55.347408	-18.799772	2.343189	-12.339184	-8.972559	20.336943	-48.039890	2.140431	-14.227436	-42.573395	14.326483	9.054641	14.002123	28.297438	-15.670634	-3.735572	1.087216	-10.486867	-17.263781	4.157629	-2.069385	-19.236729	27.314178	-19.519901	-36.469086	8.808515	-6.278097	-8.049361	3.334476	-19.505966	8.677936	13.767252	
